<svg xmlns="http://www.w3.org/2000/svg" xmlns:xlink="http://www.w3.org/1999/xlink" version="1.1" x="0px" y="0px" viewBox="0 0 60 75" style="enable-background:new 0 0 60 60;" xml:space="preserve"><path d="M34.6866455,8.9018555c-0.8935547-1.7861328-2.6894531-2.8964844-4.6865234-2.8964844  c-1.9975586,0-3.793457,1.1103516-4.6870117,2.8964844L6.5587158,46.4116211  c-0.8178711,1.6357422-0.7324219,3.5410156,0.2290039,5.0976563c0.9619141,1.5566406,2.628418,2.4853516,4.4575195,2.4853516  h37.5092773c1.8291016,0,3.4956055-0.9287109,4.4570313-2.4853516c0.9619141-1.5556641,1.0478516-3.4619141,0.2299805-5.0976563  L34.6866455,8.9018555z M51.510376,50.4575195c-0.5947266,0.9628906-1.625,1.5371094-2.7558594,1.5371094H11.2452393  c-1.1308594,0-2.1611328-0.5742188-2.7558594-1.5371094c-0.5947266-0.9619141-0.6474609-2.1396484-0.1416016-3.1513672  L27.1021729,9.7963867c0.5605469-1.1210938,1.644043-1.7910156,2.8979492-1.7910156  c1.253418,0,2.3369141,0.6699219,2.8974609,1.7910156l18.7548828,37.5097656  C52.1583252,48.3178711,52.1051025,49.4956055,51.510376,50.4575195z"/><rect x="29.0001221" y="23.0083008" width="2" height="15.0292969"/><rect x="29.0001221" y="41.3276367" width="2" height="3.6640625"/></svg>