<svg xmlns="http://www.w3.org/2000/svg" xmlns:xlink="http://www.w3.org/1999/xlink" version="1.1" x="0px" y="0px" viewBox="0 0 100 100" enable-background="new 0 0 100 100" xml:space="preserve"><g><path d="M81.935,57.258H51.452V32.122l-0.014-0.144c3.32-0.667,5.821-3.598,5.821-7.115c0-4.008-3.25-7.258-7.258-7.258   s-7.258,3.25-7.258,7.258c0,3.516,2.501,6.447,5.821,7.115l-0.014,0.144v25.137H18.065C10.849,57.259,5.001,63.107,5,70.323v5.806   c0.001,7.216,5.849,13.064,13.065,13.065h1.452v4.355c0,0.802,0.65,1.452,1.452,1.452s1.452-0.65,1.452-1.452v-4.355h55.161v4.355   c0,0.802,0.65,1.452,1.452,1.452c0.802,0,1.452-0.65,1.452-1.452v-4.355h1.452C89.151,89.193,94.999,83.345,95,76.129v-5.806   C94.999,63.107,89.151,57.259,81.935,57.258z M45.645,24.864c0-2.401,1.954-4.355,4.355-4.355s4.355,1.954,4.355,4.355   S52.401,29.218,50,29.218S45.645,27.265,45.645,24.864z M92.097,76.129c-0.001,2.811-1.135,5.342-2.976,7.185   c-1.843,1.841-4.375,2.975-7.185,2.976H18.065c-2.811-0.001-5.342-1.135-7.185-2.976c-1.841-1.843-2.975-4.375-2.976-7.185v-5.806   c0.001-2.811,1.135-5.342,2.976-7.185c1.843-1.841,4.375-2.975,7.185-2.976h31.935l0.001,0l0.001,0h31.935   c2.811,0.001,5.342,1.135,7.185,2.976c1.841,1.843,2.975,4.375,2.976,7.185V76.129z"/><path d="M79.032,67.419c-3.207,0-5.806,2.6-5.806,5.806s2.6,5.806,5.806,5.806c3.207,0,5.806-2.6,5.806-5.806   S82.239,67.419,79.032,67.419z M79.032,76.129c-1.601,0-2.903-1.302-2.903-2.903c0-1.601,1.302-2.903,2.903-2.903   c1.601,0,2.903,1.302,2.903,2.903C81.935,74.827,80.633,76.129,79.032,76.129z"/><path d="M63.99,67.419c-3.207,0-5.806,2.6-5.806,5.806s2.6,5.806,5.806,5.806s5.806-2.6,5.806-5.806S67.197,67.419,63.99,67.419z    M63.99,76.129c-1.601,0-2.903-1.302-2.903-2.903c0-1.601,1.302-2.903,2.903-2.903c1.601,0,2.903,1.302,2.903,2.903   C66.893,74.827,65.591,76.129,63.99,76.129z"/><path d="M38.439,13.503c-0.627-0.499-1.541-0.395-2.04,0.232c-2.457,3.084-3.917,6.951-3.916,11.123   c-0.003,4.105,1.401,7.862,3.788,10.935c0.491,0.633,1.403,0.749,2.037,0.258c0.634-0.491,0.749-1.403,0.258-2.037v0   c-2.025-2.617-3.176-5.712-3.179-9.156c0.001-3.492,1.212-6.71,3.284-9.315C39.17,14.915,39.066,14.002,38.439,13.503z"/><path d="M28.415,5.333c-0.618-0.511-1.533-0.425-2.044,0.193c-4.378,5.287-7.07,12.005-7.069,19.332   c-0.001,7.263,2.63,13.922,6.946,19.208c0.507,0.621,1.421,0.714,2.042,0.207c0.621-0.507,0.714-1.421,0.207-2.042   c-3.929-4.817-6.291-10.816-6.292-17.373c0.001-6.609,2.419-12.665,6.402-17.481C29.119,6.76,29.033,5.844,28.415,5.333z"/><path d="M61.692,36.05c0.633,0.491,1.545,0.376,2.037-0.258c2.388-3.073,3.791-6.83,3.788-10.935   c0.001-4.172-1.459-8.039-3.916-11.123c-0.499-0.627-1.413-0.731-2.04-0.232c-0.627,0.499-0.731,1.413-0.232,2.04   c2.072,2.606,3.283,5.823,3.284,9.315c-0.003,3.444-1.154,6.538-3.179,9.156C60.943,34.647,61.058,35.559,61.692,36.05z"/><path d="M71.709,44.273c0.621,0.507,1.536,0.414,2.042-0.207c4.316-5.286,6.947-11.945,6.946-19.208   c0.001-7.327-2.691-14.044-7.069-19.332c-0.511-0.618-1.426-0.704-2.044-0.193c-0.618,0.511-0.704,1.426-0.193,2.044l0,0   c3.983,4.816,6.401,10.872,6.402,17.481c-0.001,6.556-2.364,12.555-6.292,17.373C70.995,42.852,71.087,43.766,71.709,44.273z"/></g></svg>