<svg xmlns="http://www.w3.org/2000/svg" xmlns:xlink="http://www.w3.org/1999/xlink" version="1.1" x="0px" y="0px" viewBox="0 0 100 100" enable-background="new 0 0 100 100" xml:space="preserve"><g><path fill="none" d="M50,73.965c-1.023,0-1.9,0.359-2.606,1.066c-0.711,0.711-1.07,1.588-1.07,2.609   c0,2.028,1.649,3.677,3.676,3.677c2.027,0,3.675-1.649,3.675-3.677c0-1.375-0.754-2.289-1.079-2.618   C51.917,74.345,50.992,73.965,50,73.965z"/><path d="M50,70.059c-2.614,0-4.363,1.204-5.369,2.212c-1.01,1.009-2.213,2.761-2.213,5.37c0,4.181,3.401,7.583,7.583,7.583   c4.181,0,7.582-3.402,7.582-7.583c0-2.821-1.541-4.689-2.214-5.371C53.941,70.844,52.035,70.059,50,70.059z M50,81.318   c-2.027,0-3.676-1.649-3.676-3.677c0-1.021,0.359-1.899,1.07-2.609c0.706-0.708,1.583-1.066,2.606-1.066   c0.992,0,1.917,0.38,2.597,1.058c0.324,0.329,1.079,1.243,1.079,2.618C53.675,79.669,52.026,81.318,50,81.318z"/><path d="M94.428,33.197c-11.879-11.88-27.657-18.421-44.428-18.421c-16.773,0-32.551,6.543-44.427,18.421   c-0.762,0.763-0.762,2,0,2.762c0.763,0.763,2,0.763,2.762,0C19.473,24.818,34.27,18.682,49.999,18.682   c15.728,0,30.525,6.135,41.667,17.277c0.381,0.381,0.881,0.572,1.381,0.572s1-0.191,1.381-0.572   C95.191,35.196,95.191,33.96,94.428,33.197z"/><path d="M49.999,31.963c-12.19,0-23.654,4.761-32.281,13.405c-0.762,0.764-0.761,2.001,0.003,2.763   c0.763,0.762,2,0.759,2.762-0.003c7.888-7.905,18.371-12.258,29.516-12.258c11.146,0,21.627,4.353,29.514,12.257   c0.381,0.382,0.882,0.574,1.383,0.574c0.499,0,0.999-0.19,1.38-0.57c0.763-0.762,0.765-1.999,0.003-2.762   C73.654,36.724,62.19,31.963,49.999,31.963z"/><path d="M49.999,49.151c-7.603,0-14.756,2.964-20.141,8.345c-0.763,0.763-0.764,2-0.001,2.763c0.763,0.762,2,0.763,2.762,0.001   c4.648-4.645,10.821-7.203,17.38-7.203c6.559,0,12.731,2.558,17.379,7.204c0.381,0.38,0.881,0.571,1.38,0.571   c0.5,0,1-0.191,1.382-0.572c0.762-0.763,0.762-2-0.001-2.763C64.754,52.115,57.601,49.151,49.999,49.151z"/></g></svg>