<svg xmlns="http://www.w3.org/2000/svg" xmlns:xlink="http://www.w3.org/1999/xlink" version="1.1" x="0px" y="0px" viewBox="0 0 100 100" enable-background="new 0 0 100 100" xml:space="preserve"><path d="M32.4,58.8c0.4,0,0.7-0.2,0.9-0.6c1.1-2.4,5.1-12.3,5.1-15.9V29.5c0-0.7-0.5-1.2-1.2-1.4c0-0.1,0.1-0.3,0.1-0.5V6.8  c0-1.2-1-2.1-2.2-2.1h-0.4V4.6c0-1.2-1-2.1-2.2-2.1H16.5c-1.2,0-2.2,0.9-2.2,2.1v0.1h-0.4c-1.2,0-2.2,0.9-2.2,2.1v20.9  c0,0.2,0,0.3,0,0.4h-0.2c-0.8,0-1.5,0.6-1.5,1.4v12.8c0,3.6,4.7,13.6,6,15.9c0.2,0.3,0.5,0.5,0.9,0.5H32.4z M13.3,6.8  c0-0.2,0.2-0.4,0.5-0.4H16V4.6c0-0.2,0.2-0.4,0.5-0.4h15.9c0.3,0,0.5,0.2,0.5,0.4v1.8h2.2c0.3,0,0.5,0.2,0.5,0.4v20.9  c0,0.2-0.2,0.4-0.5,0.4h-2.6V14.7c0-0.3-0.2-0.5-0.5-0.5h0c-0.3,0-0.5,0.2-0.5,0.5V28H30V14.7c0-0.3-0.2-0.5-0.5-0.5h0  c-0.3,0-0.5,0.2-0.5,0.5V28h-1.5V14.7c0-0.3-0.2-0.5-0.5-0.5h0c-0.3,0-0.5,0.2-0.5,0.5V28h-1.5V14.7c0-0.3-0.2-0.5-0.5-0.5h0  c-0.3,0-0.5,0.2-0.5,0.5V28h-1.5V14.7c0-0.3-0.2-0.5-0.5-0.5h0c-0.3,0-0.5,0.2-0.5,0.5V28h-1.5V14.7c0-0.3-0.2-0.5-0.5-0.5h0  c-0.3,0-0.5,0.2-0.5,0.5V28h-1.5V14.7c0-0.3-0.2-0.5-0.5-0.5h0c-0.3,0-0.5,0.2-0.5,0.5V28h-2.7c-0.3,0-0.5-0.2-0.5-0.4V6.8z"/><path d="M17,12.9L17,12.9c0.4,0,0.8-0.3,0.8-0.8v-5c0-0.4-0.3-0.8-0.8-0.8c-0.4,0-0.8,0.3-0.8,0.8v5C16.3,12.6,16.6,12.9,17,12.9z   M16.8,7.1C16.8,7,16.9,7,17.1,7c0.1,0,0.2,0.1,0.2,0.2v5c0,0.1-0.1,0.2-0.2,0.2h0c-0.1,0-0.2-0.1-0.2-0.2V7.1z"/><path d="M19.3,12.9L19.3,12.9c0.4,0,0.8-0.3,0.8-0.8v-5c0-0.4-0.3-0.8-0.8-0.8c-0.4,0-0.8,0.3-0.8,0.8v5  C18.5,12.6,18.9,12.9,19.3,12.9z M19.1,7.1C19.1,7,19.2,7,19.3,7c0.1,0,0.2,0.1,0.2,0.2v5c0,0.1-0.1,0.2-0.2,0.2h0  c-0.1,0-0.2-0.1-0.2-0.2V7.1z"/><path d="M21.9,12.9L21.9,12.9c0.4,0,0.8-0.3,0.8-0.8v-5c0-0.4-0.3-0.8-0.8-0.8c-0.4,0-0.8,0.3-0.8,0.8v5  C21.1,12.6,21.5,12.9,21.9,12.9z M21.7,7.1C21.7,7,21.8,7,21.9,7C22,7,22.1,7,22.1,7.1v5c0,0.1-0.1,0.2-0.2,0.2h0  c-0.1,0-0.2-0.1-0.2-0.2V7.1z"/><path d="M24.5,12.9L24.5,12.9c0.4,0,0.8-0.3,0.8-0.8v-5c0-0.4-0.3-0.8-0.8-0.8c-0.4,0-0.8,0.3-0.8,0.8v5  C23.7,12.6,24,12.9,24.5,12.9z M24.3,7.1C24.3,7,24.4,7,24.5,7c0.1,0,0.2,0.1,0.2,0.2v5c0,0.1-0.1,0.2-0.2,0.2h0  c-0.1,0-0.2-0.1-0.2-0.2V7.1z"/><path d="M27,12.9L27,12.9c0.4,0,0.8-0.3,0.8-0.8v-5c0-0.4-0.3-0.8-0.8-0.8c-0.4,0-0.8,0.3-0.8,0.8v5C26.3,12.6,26.6,12.9,27,12.9z   M26.8,7.1C26.8,7,26.9,7,27.1,7c0.1,0,0.2,0.1,0.2,0.2v5c0,0.1-0.1,0.2-0.2,0.2h0c-0.1,0-0.2-0.1-0.2-0.2V7.1z"/><path d="M29.6,12.9L29.6,12.9c0.4,0,0.8-0.3,0.8-0.8v-5c0-0.4-0.3-0.8-0.8-0.8c-0.4,0-0.8,0.3-0.8,0.8v5  C28.8,12.6,29.2,12.9,29.6,12.9z M29.4,7.1C29.4,7,29.5,7,29.6,7c0.1,0,0.2,0.1,0.2,0.2v5c0,0.1-0.1,0.2-0.2,0.2h0  c-0.1,0-0.2-0.1-0.2-0.2V7.1z"/><path d="M31.9,12.9L31.9,12.9c0.4,0,0.8-0.3,0.8-0.8v-5c0-0.4-0.3-0.8-0.8-0.8c-0.4,0-0.8,0.3-0.8,0.8v5  C31.1,12.6,31.5,12.9,31.9,12.9z M31.7,7.1C31.7,7,31.8,7,31.9,7C32,7,32.1,7,32.1,7.1v5c0,0.1-0.1,0.2-0.2,0.2h0  c-0.1,0-0.2-0.1-0.2-0.2V7.1z"/><path d="M32.9,61.4c0-0.6-0.5-1.1-1.1-1.1h-14c-0.6,0-1.1,0.5-1.1,1.1s0.5,1.1,1.1,1.1h14C32.4,62.5,32.9,62,32.9,61.4z"/><path d="M30.5,66.1c0.6,0,1.1-0.5,1.1-1.1s-0.5-1.1-1.1-1.1H19c-0.6,0-1.1,0.5-1.1,1.1s0.5,1.1,1.1,1.1H30.5z"/><path d="M30.5,68.5c0-0.6-0.5-1.1-1.1-1.1H20c-0.6,0-1.1,0.5-1.1,1.1s0.5,1.1,1.1,1.1h9.4C30,69.7,30.5,69.2,30.5,68.5z"/><path d="M94.1,42.8c-15.2,0-26.1,9.7-27.5,27.4c-0.9,11.2-8.4,20.7-18.8,20.8c-10.4,0-18.8-8.9-18.8-19.8h-8.6  c0,15.6,12.2,28.3,27.3,28.4v0c0,0,0.1,0,0.1,0c0,0,0.1,0,0.1,0v0C62.9,99.4,74,87,75.2,71.1c1-13.3,8.5-19.7,18.9-19.8c0,0,0,0,0,0  c0.6,0,1.1-1.9,1.1-4.3S94.7,42.8,94.1,42.8z"/></svg>